<svg xmlns="http://www.w3.org/2000/svg" viewBox="0 0 64 64" role="img" aria-label="Smart Library">
  <defs>
    <linearGradient id="g" x1="0" x2="1" y1="0" y2="1">
      <stop offset="0%" stop-color="#38bdf8" />
      <stop offset="100%" stop-color="#34d399" />
    </linearGradient>
  </defs>
  <rect width="64" height="64" rx="16" fill="#020617" />
  <path d="M18 20h28a4 4 0 0 1 4 4v18a6 6 0 0 1-6 6H22a4 4 0 0 1-4-4V24a4 4 0 0 1 4-4Z" fill="url(#g)" opacity="0.18"/>
  <path d="M22 22h18a4 4 0 0 1 4 4v16H26a4 4 0 0 1-4-4V22Z" fill="url(#g)"/>
  <path d="M20 48h24" stroke="#e2e8f0" stroke-width="3" stroke-linecap="round"/>
  <path d="M28 26h10M28 32h14M28 38h8" stroke="#020617" stroke-width="2.5" stroke-linecap="round"/>
</svg>
